<svg xmlns="http://www.w3.org/2000/svg" width="25" height="24" viewBox="0 0 25 24" fill="none">
  <rect x="3.25" y="1.75" width="18.5" height="18.5" rx="2.25" stroke="#F9FAFB" stroke-width="1.5"/>
  <path d="M6.06815 14.5798C6.07476 15.614 6.08226 16.7862 7.38329 16.992C7.68172 17.0259 7.98201 16.9516 8.23967 16.7801C8.49733 16.6085 8.69866 16.3488 8.81382 16.0394C9.73434 13.6443 12.8964 12.6667 15.1579 13.2867C15.5381 13.4014 15.9355 13.4261 16.3248 13.3593C16.714 13.2925 17.0865 13.1356 17.4183 12.8986C18.5483 12.0851 19.0278 10.4745 17.6873 9.43282C16.6078 8.61265 14.8544 9.12875 13.3074 9.58403C12.0178 9.95492 11.2673 10.2456 10.1455 9.87569C9.23593 9.64554 8.18791 9.35959 7.34595 9.35764C5.30848 9.42655 5.16649 10.9594 5.91716 13.1924C6.06165 13.5691 6.0649 14.083 6.06815 14.5798ZM6.06278 10.3306C6.74389 9.33086 8.52772 9.93218 9.62007 10.1703C10.1184 10.2837 10.6039 10.465 11.1013 10.4728C12.8612 10.4799 15.9939 8.66217 17.477 9.77889C18.5236 10.5211 18.1748 11.8793 17.2221 12.5425C16.9321 12.7493 16.6067 12.8861 16.2666 12.9443C15.9266 13.0025 15.5794 12.9807 15.2473 12.8803C12.8402 12.2199 9.46384 13.2872 8.46815 15.878C8.38542 16.1034 8.23997 16.293 8.05331 16.4189C7.86665 16.5447 7.64867 16.6002 7.43162 16.577C5.9269 16.4268 6.72715 14.1718 6.26446 13.0352C5.82475 11.7433 5.75694 10.8334 6.06278 10.3306Z" fill="#F9FAFB" stroke="#F9FAFB" stroke-width="0.15"/>
  <path d="M6.89179 14.1508C6.85306 14.6775 7.50744 14.981 7.82843 14.5326C9.14536 12.738 11.6568 11.6468 13.9764 12.0269C14.8753 12.137 15.8047 12.2507 16.2547 11.8137C16.5994 11.5109 16.5861 10.7239 16.1812 10.454C15.6237 10.0423 14.4389 10.328 13.0667 10.6588C11.6876 10.9912 10.1252 11.368 9.13065 11.0222C7.54985 10.4726 6.94994 10.38 6.6624 10.6423C6.40508 10.877 6.49771 11.2866 6.6378 11.9067C6.76583 12.472 6.94086 13.246 6.89179 14.1508ZM6.89328 10.9014C6.95613 10.8602 7.03097 10.842 7.10543 10.8497C7.57422 10.8497 8.59016 11.2031 9.01894 11.3522C10.8549 12.0843 14.8936 10.0905 15.9783 10.7357C16.2109 10.8862 16.206 11.4015 16.0162 11.5609C15.6839 11.8834 14.76 11.7705 14.0176 11.6794C11.5825 11.283 8.93677 12.4337 7.55089 14.3255C7.417 14.4994 7.22599 14.3519 7.23599 14.1702C7.28771 13.2162 7.10647 12.4144 6.97419 11.8292C6.87777 11.4022 6.7864 10.9987 6.89328 10.9014Z" fill="#F9FAFB" stroke="#F9FAFB" stroke-width="0.15"/>
  <path d="M17.5852 14.9434C17.503 14.9456 17.4224 14.967 17.35 15.0058C17.2775 15.0447 17.2152 15.1 17.1679 15.1673C17.1206 15.2346 17.0897 15.312 17.0777 15.3933C17.0656 15.4747 17.0728 15.5577 17.0985 15.6358C17.386 16.4796 16.7112 16.893 16.4079 17.0317C16.2733 17.0897 16.1543 17.1787 16.0604 17.2913C16.0169 17.3524 15.9896 17.4237 15.9813 17.4983C15.9729 17.5729 15.9837 17.6484 16.0127 17.7177C16.0416 17.7869 16.0878 17.8477 16.1467 17.8941C16.2057 17.9406 16.2756 17.9712 16.3497 17.9832C16.4605 17.9971 16.5719 18.0049 16.6835 18.0068C17.4229 18.0233 18.2655 17.6893 18.5301 17.2665C18.7466 16.9243 18.7212 16.2871 18.4693 15.7523C18.2185 15.2193 17.921 14.9473 17.5852 14.9434ZM18.2308 17.0768C18.0519 17.36 17.3744 17.664 16.6905 17.6524C16.5943 17.6507 16.4982 17.6442 16.4027 17.6327C16.3879 17.6302 16.3739 17.6238 16.3623 17.6144C16.3506 17.6049 16.3416 17.5926 16.336 17.5787C16.3305 17.5664 16.3283 17.5529 16.3297 17.5395C16.3311 17.5261 16.336 17.5134 16.344 17.5025C16.4043 17.4367 16.4783 17.3849 16.5609 17.351C17.1872 17.0625 17.7436 16.4315 17.4353 15.5269C17.4261 15.5022 17.4228 15.4757 17.4255 15.4495C17.4283 15.4234 17.437 15.3981 17.4511 15.3759C17.4653 15.3537 17.4843 15.335 17.5069 15.3214C17.5294 15.3078 17.5548 15.2995 17.5811 15.2974C17.7646 15.2995 17.9662 15.5144 18.1489 15.9025C18.3692 16.3705 18.3636 16.8671 18.2308 17.0768Z" fill="#F9FAFB"/>
  <path d="M17.7499 14.0171C16.8049 13.8689 15.5779 14.7092 16.1583 15.5642C16.3481 15.8691 16.2805 16.0316 15.9418 16.1958C15.3334 16.4554 14.7854 17.3504 15.0839 18.0431C15.77 19.2495 18.5404 18.689 19.17 17.5909C19.8896 16.5345 19.1021 14.2195 17.7499 14.0171ZM18.8709 17.4015C18.4432 18.0773 17.3237 18.399 16.4831 18.3579C15.935 18.3313 15.5418 18.1611 15.4037 17.8909C15.2739 17.6097 15.4196 17.1676 15.6226 16.8935C15.9148 16.4658 16.432 16.5266 16.5952 16.0084C16.666 15.7466 16.556 15.5495 16.4674 15.3913C16.3899 15.2527 16.3434 15.162 16.363 15.0479C16.425 14.6851 17.1081 14.2744 17.695 14.3669C18.7934 14.5375 19.4595 16.5568 18.8709 17.4015Z" fill="#F9FAFB"/>
  <path d="M6.21342 3.5C6.07231 3.5 5.93438 3.54399 5.81706 3.6264C5.69974 3.70881 5.6083 3.82594 5.55431 3.96299C5.50031 4.10003 5.48618 4.25083 5.51371 4.39632C5.54124 4.5418 5.60918 4.67544 5.70895 4.78033C5.80873 4.88522 5.93585 4.95665 6.07423 4.98559C6.21262 5.01453 6.35607 4.99968 6.48643 4.94291C6.61679 4.88614 6.72821 4.79001 6.8066 4.66668C6.88499 4.54334 6.92683 4.39834 6.92683 4.25C6.92662 4.05116 6.85139 3.86052 6.71764 3.71991C6.5839 3.57931 6.40256 3.50022 6.21342 3.5ZM6.21342 4.5C6.16638 4.5 6.1204 4.48534 6.0813 4.45787C6.04219 4.4304 6.01171 4.39135 5.99371 4.34567C5.97571 4.29999 5.971 4.24972 5.98018 4.20123C5.98936 4.15273 6.012 4.10819 6.04526 4.07322C6.07852 4.03826 6.12089 4.01445 6.16702 4.0048C6.21315 3.99516 6.26097 4.00011 6.30442 4.01903C6.34787 4.03795 6.38501 4.07 6.41114 4.11111C6.43727 4.15222 6.45122 4.20055 6.45122 4.25C6.45122 4.3163 6.42617 4.37989 6.38157 4.42678C6.33697 4.47366 6.27648 4.5 6.21342 4.5ZM11.2866 3.5C11.1455 3.5 11.0076 3.54399 10.8902 3.6264C10.7729 3.70881 10.6815 3.82594 10.6275 3.96299C10.5735 4.10003 10.5594 4.25083 10.5869 4.39632C10.6144 4.5418 10.6824 4.67544 10.7821 4.78033C10.8819 4.88522 11.009 4.95665 11.1474 4.98559C11.2858 5.01453 11.4292 4.99968 11.5596 4.94291C11.69 4.88614 11.8014 4.79001 11.8798 4.66668C11.9582 4.54334 12 4.39834 12 4.25C11.9998 4.05116 11.9246 3.86052 11.7908 3.71991C11.6571 3.57931 11.4757 3.50022 11.2866 3.5ZM11.2866 4.5C11.2396 4.5 11.1936 4.48534 11.1545 4.45787C11.1154 4.4304 11.0849 4.39135 11.0669 4.34567C11.0489 4.29999 11.0442 4.24972 11.0533 4.20123C11.0625 4.15273 11.0852 4.10819 11.1184 4.07322C11.1517 4.03826 11.1941 4.01445 11.2402 4.0048C11.2863 3.99516 11.3341 4.00011 11.3776 4.01903C11.421 4.03795 11.4582 4.07 11.4843 4.11111C11.5104 4.15222 11.5244 4.20055 11.5244 4.25C11.5244 4.3163 11.4993 4.37989 11.4547 4.42678C11.4101 4.47366 11.3497 4.5 11.2866 4.5ZM8.75 3.5C8.6089 3.5 8.47097 3.54399 8.35365 3.6264C8.23633 3.70881 8.14489 3.82594 8.09089 3.96299C8.03689 4.10003 8.02277 4.25083 8.05029 4.39632C8.07782 4.5418 8.14577 4.67544 8.24554 4.78033C8.34531 4.88522 8.47243 4.95665 8.61082 4.98559C8.74921 5.01453 8.89265 4.99968 9.02301 4.94291C9.15337 4.88614 9.26479 4.79001 9.34318 4.66668C9.42157 4.54334 9.46341 4.39834 9.46341 4.25C9.46321 4.05116 9.38797 3.86052 9.25423 3.71991C9.12048 3.57931 8.93915 3.50022 8.75 3.5ZM8.75 4.5C8.70297 4.5 8.65699 4.48534 8.61788 4.45787C8.57878 4.4304 8.5483 4.39135 8.5303 4.34567C8.5123 4.29999 8.50759 4.24972 8.51676 4.20123C8.52594 4.15273 8.54859 4.10819 8.58185 4.07322C8.6151 4.03826 8.65748 4.01445 8.70361 4.0048C8.74974 3.99516 8.79755 4.00011 8.841 4.01903C8.88446 4.03795 8.9216 4.07 8.94773 4.11111C8.97386 4.15222 8.98781 4.20055 8.98781 4.25C8.98781 4.3163 8.96275 4.37989 8.91815 4.42678C8.87356 4.47366 8.81307 4.5 8.75 4.5Z" fill="#F9FAFB"/>
  <path d="M4 6.5H21" stroke="#F9FAFB" stroke-width="1.5"/>
</svg>