<svg xmlns="http://www.w3.org/2000/svg" width="25" height="24" viewBox="0 0 25 24" fill="none">
  <path d="M17.9399 15.3699C17.7499 15.3699 17.5599 15.2999 17.4099 15.1499C17.1199 14.8599 17.1199 14.3799 17.4099 14.0899L19.4399 12.0599L17.4099 10.0299C17.1199 9.73994 17.1199 9.25994 17.4099 8.96994C17.6999 8.67994 18.1799 8.67994 18.4699 8.96994L21.0299 11.5299C21.3199 11.8199 21.3199 12.2999 21.0299 12.5899L18.4699 15.1499C18.3199 15.2999 18.1299 15.3699 17.9399 15.3699Z" fill="#F9FAFB"/>
  <path d="M20.4298 12.8101H10.2598C9.84977 12.8101 9.50977 12.4701 9.50977 12.0601C9.50977 11.6501 9.84977 11.3101 10.2598 11.3101H20.4298C20.8398 11.3101 21.1798 11.6501 21.1798 12.0601C21.1798 12.4701 20.8398 12.8101 20.4298 12.8101Z" fill="#F9FAFB"/>
  <path d="M12.2598 20.75C7.10977 20.75 3.50977 17.15 3.50977 12C3.50977 6.85 7.10977 3.25 12.2598 3.25C12.6698 3.25 13.0098 3.59 13.0098 4C13.0098 4.41 12.6698 4.75 12.2598 4.75C7.98977 4.75 5.00977 7.73 5.00977 12C5.00977 16.27 7.98977 19.25 12.2598 19.25C12.6698 19.25 13.0098 19.59 13.0098 20C13.0098 20.41 12.6698 20.75 12.2598 20.75Z" fill="#F9FAFB"/>
</svg>