<svg xmlns="http://www.w3.org/2000/svg" width="24" height="25" viewBox="0 0 24 25" fill="none">
  <g>
    <path d="M16 22.75H8C4.35 22.75 2.25 20.65 2.25 17V7C2.25 3.35 4.35 1.25 8 1.25H16C19.65 1.25 21.75 3.35 21.75 7V17C17.6302 16.9056 15.4275 18.8897 16 22.75ZM8 2.75C5.14 2.75 3.75 4.14 3.75 7V17C3.75 19.86 5.14 21.25 8 21.25H16C16.0096 18.8365 17.4529 17.5485 20.25 17V7C20.25 4.14 18.86 2.75 16 2.75H8Z" fill="#F9FAFB"/>
    <path d="M18.5 9.25H16.5C14.98 9.25 13.75 8.02 13.75 6.5V4.5C13.75 4.09 14.09 3.75 14.5 3.75C14.91 3.75 15.25 4.09 15.25 4.5V6.5C15.25 7.19 15.81 7.75 16.5 7.75H18.5C18.91 7.75 19.25 8.09 19.25 8.5C19.25 8.91 18.91 9.25 18.5 9.25Z" fill="#F9FAFB"/>
    <path d="M12 11.75H8C7.59 11.75 7.25 11.41 7.25 11C7.25 10.59 7.59 10.25 8 10.25H12C12.41 10.25 12.75 10.59 12.75 11C12.75 11.41 12.41 11.75 12 11.75Z" fill="#F9FAFB"/>
    <path d="M13.75 15.75H8C7.59 15.75 7.25 15.41 7.25 15C7.25 14.59 7.59 14.25 8 14.25H13.75C14.16 14.25 14.5 14.59 14.5 15C14.5 15.41 14.16 15.75 13.75 15.75Z" fill="#F9FAFB"/>
    <path d="M18.4147 23.8295C15.9783 23.8295 14 21.8512 14 19.4147C14 16.9783 15.9783 15 18.4147 15C20.8512 15 22.8295 16.9783 22.8295 19.4147C22.8295 21.8512 20.8512 23.8295 18.4147 23.8295ZM18.4147 16.6765C16.9059 16.6765 15.6765 17.9059 15.6765 19.4147C15.6765 20.9236 16.9059 22.153 18.4147 22.153C19.9236 22.153 21.153 20.9236 21.153 19.4147C21.153 17.9059 19.9236 16.6765 18.4147 16.6765Z" fill="#F9FAFB"/>
    <path d="M22.6611 24.4993C22.4488 24.4993 22.2364 24.4211 22.0688 24.2535L20.9511 23.1358C20.627 22.8117 20.627 22.2752 20.9511 21.9511C21.2752 21.627 21.8117 21.627 22.1358 21.9511L23.2535 23.0688C23.5776 23.3929 23.5776 23.9293 23.2535 24.2535C23.0858 24.4211 22.8735 24.4993 22.6611 24.4993Z" fill="#F9FAFB"/>
  </g>
</svg>