<svg xmlns="http://www.w3.org/2000/svg" width="25" height="24" viewBox="0 0 25 24" fill="none">
  <path d="M16.5 22.75H8.5C4.85 22.75 2.75 20.65 2.75 17V7C2.75 3.35 4.85 1.25 8.5 1.25H16.5C20.15 1.25 22.25 3.35 22.25 7V17C22.25 20.65 20.15 22.75 16.5 22.75ZM8.5 2.75C5.64 2.75 4.25 4.14 4.25 7V17C4.25 19.86 5.64 21.25 8.5 21.25H16.5C19.36 21.25 20.75 19.86 20.75 17V7C20.75 4.14 19.36 2.75 16.5 2.75H8.5Z" fill="#F9FAFB"/>
  <path d="M19 9.25H17C15.48 9.25 14.25 8.02 14.25 6.5V4.5C14.25 4.09 14.59 3.75 15 3.75C15.41 3.75 15.75 4.09 15.75 4.5V6.5C15.75 7.19 16.31 7.75 17 7.75H19C19.41 7.75 19.75 8.09 19.75 8.5C19.75 8.91 19.41 9.25 19 9.25Z" fill="#F9FAFB"/>
  <path d="M12.5 13.75H8.5C8.09 13.75 7.75 13.41 7.75 13C7.75 12.59 8.09 12.25 8.5 12.25H12.5C12.91 12.25 13.25 12.59 13.25 13C13.25 13.41 12.91 13.75 12.5 13.75Z" fill="#F9FAFB"/>
  <path d="M16.5 17.75H8.5C8.09 17.75 7.75 17.41 7.75 17C7.75 16.59 8.09 16.25 8.5 16.25H16.5C16.91 16.25 17.25 16.59 17.25 17C17.25 17.41 16.91 17.75 16.5 17.75Z" fill="#F9FAFB"/>
</svg>