<svg xmlns="http://www.w3.org/2000/svg" width="25" height="24" viewBox="0 0 25 24" fill="none">
  <path d="M8.5 22.3199C8.22 22.3199 7.92998 22.2499 7.66998 22.1099C7.09998 21.8099 6.75 21.2099 6.75 20.5699V19.15C3.73 18.84 1.75 16.6199 1.75 13.4399V7.43994C1.75 3.99994 4.06 1.68994 7.5 1.68994H17.5C20.94 1.68994 23.25 3.99994 23.25 7.43994V13.4399C23.25 16.8799 20.94 19.1899 17.5 19.1899H13.73L9.46997 22.03C9.17997 22.22 8.84 22.3199 8.5 22.3199ZM7.5 3.17993C4.92 3.17993 3.25 4.84993 3.25 7.42993V13.43C3.25 16.01 4.92 17.68 7.5 17.68C7.91 17.68 8.25 18.02 8.25 18.43V20.56C8.25 20.69 8.33 20.75 8.38 20.78C8.43001 20.81 8.53001 20.84 8.64001 20.77L13.09 17.81C13.21 17.73 13.36 17.68 13.51 17.68H17.51C20.09 17.68 21.76 16.01 21.76 13.43V7.42993C21.76 4.84993 20.09 3.17993 17.51 3.17993H7.5Z" fill="#F9FAFB"/>
  <path d="M12.4998 12.1099C12.0898 12.1099 11.7498 11.7699 11.7498 11.3599V11.1499C11.7498 9.9899 12.5998 9.41989 12.9198 9.19989C13.2898 8.94989 13.4098 8.7799 13.4098 8.5199C13.4098 8.0199 12.9998 7.60986 12.4998 7.60986C11.9998 7.60986 11.5898 8.0199 11.5898 8.5199C11.5898 8.9299 11.2498 9.2699 10.8398 9.2699C10.4298 9.2699 10.0898 8.9299 10.0898 8.5199C10.0898 7.1899 11.1698 6.10986 12.4998 6.10986C13.8298 6.10986 14.9098 7.1899 14.9098 8.5199C14.9098 9.6599 14.0698 10.2299 13.7598 10.4399C13.3698 10.6999 13.2498 10.8699 13.2498 11.1499V11.3599C13.2498 11.7799 12.9098 12.1099 12.4998 12.1099Z" fill="#F9FAFB"/>
  <path d="M12.5 14.6001C12.08 14.6001 11.75 14.2601 11.75 13.8501C11.75 13.4401 12.09 13.1001 12.5 13.1001C12.91 13.1001 13.25 13.4401 13.25 13.8501C13.25 14.2601 12.92 14.6001 12.5 14.6001Z" fill="#F9FAFB"/>
</svg>