<svg xmlns="http://www.w3.org/2000/svg" width="26" height="29" viewBox="0 0 26 29" fill="none">
  <path d="M7.13325 19.3772C9.08877 20.7994 11.0444 21.9372 12.9999 21.9372C14.9554 21.9372 16.9111 20.7994 18.8666 19.3772C17.2547 18.8865 16.4369 18.1541 16.4132 17.1799C16.4132 17.0062 16.4145 16.7596 16.4157 16.2966C16.4157 16.223 16.4159 16.1477 16.4162 16.0706C16.4194 14.829 16.4247 13.1907 16.432 11.5267C17.9608 9.5451 17.3992 7.22201 16.9201 7.27993C16.3328 7.3514 11.2445 2.52281 10.2685 2.27524C9.2925 2.02766 6.81325 2.82692 6.38658 5.05358C5.95991 7.28025 5.78157 12.8928 7.39991 15.1336C7.86043 15.7712 8.58576 16.0207 9.57591 15.8819C9.5773 16.3479 9.58007 16.6094 9.58658 17.1372C9.57389 18.1558 8.75618 18.8871 7.13325 19.3772Z" fill="url(#paint0_linear_403_2)"/>
  <path d="M9.58667 15.8801C11.9333 15.6134 13.4267 14.6001 13.4267 14.6001C13.4267 14.6001 11.72 16.7334 9.58667 17.1601V15.8801Z" fill="#FC9F6A"/>
  <path d="M17.2133 11.5602C17.9483 9.79268 20.8933 6.193 18.3547 3.953C17.5013 -0.206995 12.7867 0.253485 9.64001 1.21348C7.52513 1.85871 5.92801 3.13348 5.58668 2.17348C3.45335 3.953 4.52172 5.69348 5.92801 6.193C7.20439 6.64634 9.36268 7.09967 13.0327 6.673C13.6882 6.59674 13.5509 8.60453 13.9012 8.82159C14.4268 9.14725 14.8347 7.09967 16.2755 7.7145C17.7164 8.32932 16.8613 11.1801 15.3147 11.1801C14.7813 11.1801 14.5147 12.6464 15.9547 13.3398C17 13.8535 16.7358 12.7086 17.2133 11.5602Z" fill="url(#paint1_linear_403_2)"/>
  <path d="M24.2 22.6328C25.2154 24.6976 25.8 29.4595 25.8 29.4595H0.199951C0.199951 29.4595 0.784698 24.6971 1.79995 22.6328C2.8152 20.5686 8.74395 18.6541 8.74395 18.6541C12.02 19.9333 14.0248 19.9333 17.2529 18.6533C17.2529 18.6533 23.1845 20.5681 24.2 22.6328Z" fill="url(#paint2_linear_403_2)"/>
  <path d="M13.7466 19.4L14.28 29.2134H11.72L12.2533 19.4C12.2533 19.4 12.7511 18.8667 13 18.8667C13.2488 18.8667 13.7466 19.4 13.7466 19.4Z" fill="url(#paint3_linear_403_2)"/>
  <path d="M13.868 21.3938L12.1907 20.4247L12.2532 19.4C12.5851 19.0445 12.8339 18.8667 12.9998 18.8667C13.1657 18.8667 13.4146 19.0445 13.7465 19.4L13.8681 21.3938H13.868Z" fill="#645050"/>
  <path d="M13 18.866L11.9334 20.7869L8.62671 18.7602L9.58671 17.3735L13 18.6344L16.4134 17.3735L17.3734 18.7602L14.0667 20.7869L13 18.866Z" fill="white"/>
  <defs>
    <linearGradient id="paint0_linear_403_2" x1="12.4796" y1="2.23193" x2="12.4796" y2="21.9372" gradientUnits="userSpaceOnUse">
      <stop stop-color="#F7B186"/>
      <stop offset="1" stop-color="#FFC299"/>
    </linearGradient>
    <linearGradient id="paint1_linear_403_2" x1="11.8737" y1="0.561523" x2="11.8737" y2="13.4661" gradientUnits="userSpaceOnUse">
      <stop stop-color="#1D0024"/>
      <stop offset="1" stop-color="#100014"/>
    </linearGradient>
    <linearGradient id="paint2_linear_403_2" x1="13" y1="18.6533" x2="13" y2="29.4595" gradientUnits="userSpaceOnUse">
      <stop stop-color="#1D0024"/>
      <stop offset="1" stop-color="#100014"/>
    </linearGradient>
    <linearGradient id="paint3_linear_403_2" x1="13" y1="18.8667" x2="13" y2="29.2134" gradientUnits="userSpaceOnUse">
      <stop stop-color="#806A6A"/>
      <stop offset="1" stop-color="#665654"/>
    </linearGradient>
  </defs>
</svg>