<svg xmlns="http://www.w3.org/2000/svg" width="16" height="16" viewBox="0 0 16 16" fill="none">
  <path d="M8.43411 12.0604C8.3581 12.1295 8.25439 12.1729 8.13501 12.1723C7.90421 12.1712 7.71418 11.9948 7.71538 11.7827L7.77315 1.54542C7.77434 1.33336 7.96634 1.15878 8.19715 1.15988C8.42796 1.16098 8.61798 1.33738 8.61678 1.54944L8.55901 11.7868C8.5584 11.8964 8.51011 11.9913 8.43411 12.0604Z" fill="#4040F2"/>
  <path d="M12.5426 8.32522L8.43457 12.0607C8.27057 12.2098 7.99997 12.2085 7.83766 12.0578L3.77201 8.28345C3.6097 8.13277 3.6111 7.88415 3.7751 7.73502C3.9391 7.58589 4.2097 7.58718 4.37201 7.73786L8.14076 11.2366L11.9488 7.77395C12.1128 7.62483 12.3834 7.62612 12.5457 7.7768C12.708 7.92748 12.7066 8.1761 12.5426 8.32522Z" fill="#4040F2"/>
  <path d="M13.6668 15.1665H2.3335C2.06016 15.1665 1.8335 14.9398 1.8335 14.6665C1.8335 14.3932 2.06016 14.1665 2.3335 14.1665H13.6668C13.9402 14.1665 14.1668 14.3932 14.1668 14.6665C14.1668 14.9398 13.9402 15.1665 13.6668 15.1665Z" fill="#4040F2"/>
</svg>